<?xml version="1.0" encoding="utf-8"?>
<!-- Generator: Adobe Illustrator 17.1.0, SVG Export Plug-In . SVG Version: 6.00 Build 0)  -->
<!DOCTYPE svg PUBLIC "-//W3C//DTD SVG 1.1//EN" "http://www.w3.org/Graphics/SVG/1.1/DTD/svg11.dtd">
<svg version="1.1" id="Layer_1" xmlns="http://www.w3.org/2000/svg" xmlns:xlink="http://www.w3.org/1999/xlink" x="0px" y="0px"
	 viewBox="119.7 190.4 752.9 168.6" enable-background="new 119.7 190.4 752.9 168.6" xml:space="preserve">
<g id="Layer_1_1_">
</g>
<g id="Layer_2">
</g>
<g id="Layer_3">
	<g>
		<rect x="138.2" y="276.4" fill="#DC5B26" width="15.8" height="5.3"/>
		<rect x="135.1" y="285" fill="#DC5B26" width="17.9" height="5.3"/>
		<g>
			<rect x="195.3" y="190.4" width="17" height="5.3"/>
			<rect x="193.7" y="199" width="20.3" height="5.3"/>
			<rect x="193.4" y="207.6" width="20.8" height="5.3"/>
			<rect x="192.9" y="216.2" width="21.8" height="5.3"/>
			<rect x="192.9" y="224.8" width="21.8" height="5.3"/>
			<rect x="192.5" y="233.4" width="22.4" height="5.3"/>
			<rect x="192.2" y="242" width="23.4" height="5.3"/>
			<rect x="192" y="250.6" width="23.7" height="5.3"/>
			<rect x="192.5" y="259.2" width="23.2" height="5.3"/>
			<rect x="192.2" y="267.8" width="23.4" height="5.3"/>
			<rect x="178.9" y="276.4" width="49.9" height="5.3"/>
			<rect x="172.9" y="285" width="61.6" height="5.3"/>
			<rect x="185.3" y="293.6" width="37" height="5.3"/>
		</g>
		<g>
			<rect x="219.2" y="267.8" fill="#898989" width="11.4" height="5.3"/>
			<rect x="174.5" y="267.8" fill="#898989" width="14.8" height="5.3"/>
			<rect x="161.4" y="276.4" fill="#898989" width="11.5" height="5.3"/>
			<rect x="233.1" y="276.4" fill="#898989" width="13.9" height="5.3"/>
			<rect x="158.6" y="285" fill="#898989" width="9.5" height="5.3"/>
			<rect x="239.1" y="285" fill="#898989" width="11.2" height="5.3"/>
			<rect x="161.2" y="293.6" fill="#898989" width="18.6" height="5.3"/>
			<rect x="228.3" y="293.6" fill="#898989" width="14.3" height="5.3"/>
			<rect x="182.5" y="302.2" fill="#898989" width="37.3" height="5.3"/>
		</g>
		<g>
			<rect x="177.9" y="259.2" fill="#4A494A" width="11.2" height="5.3"/>
			<rect x="234.7" y="267.8" fill="#4A494A" width="5.7" height="5.3"/>
			<rect x="156.2" y="267.8" fill="#4A494A" width="14.8" height="5.3"/>
			<rect x="250" y="276.4" fill="#4A494A" width="13.9" height="5.3"/>
			<rect x="254.5" y="285" fill="#4A494A" width="25.3" height="5.3"/>
			<rect x="128" y="293.6" fill="#4A494A" width="28.7" height="5.3"/>
			<rect x="247.2" y="293.6" fill="#4A494A" width="21.8" height="5.3"/>
			<rect x="272.9" y="293.6" fill="#212121" width="9.5" height="5.3"/>
			<rect x="149" y="302.2" fill="#4A494A" width="26.7" height="5.3"/>
			<rect x="224.5" y="302.2" fill="#4A494A" width="27.2" height="5.3"/>
			<rect x="173.2" y="310.6" fill="#4A494A" width="58.8" height="5.3"/>
			<rect x="190.5" y="319.2" fill="#4A494A" width="26.8" height="5.3"/>
		</g>
		<g>
			<rect x="119.7" y="302.2" fill="#212121" width="23.9" height="5.3"/>
			<rect x="260" y="302.2" fill="#212121" width="20.5" height="5.3"/>
			<rect x="122.2" y="310.6" fill="#212121" width="45.9" height="5.3"/>
			<rect x="237.6" y="310.6" fill="#212121" width="41.1" height="5.3"/>
			<rect x="221.2" y="319.2" fill="#212121" width="56.4" height="5.3"/>
			<rect x="125.1" y="319.2" fill="#212121" width="59.5" height="5.3"/>
			<rect x="137.3" y="327.8" fill="#212121" width="133" height="5.3"/>
			<rect x="153.3" y="336.4" fill="#212121" width="101" height="5.3"/>
			<rect x="173.8" y="345" fill="#212121" width="60" height="5.3"/>
			<rect x="193.5" y="353.6" fill="#212121" width="20.5" height="5.3"/>
		</g>
		<g opacity="0.2">
			<rect x="119.7" y="276.4" fill="#D8D8D8" width="14.5" height="5.3"/>
			<rect x="119.9" y="190.4" fill="#D8D8D8" width="71.2" height="5.3"/>
			<rect x="119.9" y="199" fill="#D8D8D8" width="70" height="5.3"/>
			<rect x="119.9" y="207.6" fill="#D8D8D8" width="69.5" height="5.3"/>
			<rect x="119.9" y="216.2" fill="#D8D8D8" width="69.2" height="5.3"/>
			<rect x="119.9" y="224.8" fill="#D8D8D8" width="69.2" height="5.3"/>
			<rect x="119.9" y="233.4" fill="#D8D8D8" width="68.3" height="5.3"/>
			<rect x="119.9" y="242" fill="#D8D8D8" width="67.8" height="5.3"/>
			<rect x="119.9" y="250.6" fill="#D8D8D8" width="67.8" height="5.3"/>
			<rect x="119.7" y="259.2" fill="#D8D8D8" width="54.7" height="5.3"/>
			<rect x="119.7" y="267.8" fill="#D8D8D8" width="33.7" height="5.3"/>
			<rect x="119.7" y="285" fill="#D8D8D8" width="10.7" height="5.3"/>
			<rect x="119.7" y="293.6" fill="#D8D8D8" width="4.6" height="5.3"/>
			<rect x="119.7" y="327.8" fill="#D8D8D8" width="12.4" height="5.3"/>
			<rect x="119.7" y="336.4" fill="#D8D8D8" width="28.6" height="5.3"/>
			<rect x="119.7" y="345" fill="#D8D8D8" width="50.2" height="5.3"/>
			<rect x="119.7" y="353.6" fill="#D8D8D8" width="70" height="5.3"/>
		</g>
		<g>
			<path fill="#F1F2F2" d="M381.9,303.1c-1.7,2.9-4.3,5.7-7.7,7.9c-3.4,2.2-8.1,3.4-13.8,3.4c-7.4,0-13.4-2.2-17.7-6.9
				c-4.3-4.6-6.5-11.4-6.5-20.1v-21.7c0-8.8,2.1-15.3,6.2-20c4.1-4.6,9.8-6.9,16.9-6.9c7.2,0,12.7,1.9,16.3,5.5
				c3.6,3.8,5.7,9.1,6,16.3h-10c-0.2-4.6-1.2-8.3-3.1-10.5c-1.9-2.4-5-3.4-9.1-3.4c-4.3,0-7.6,1.5-9.8,4.6
				c-2.2,3.1-3.4,7.9-3.4,14.1v21.8c0,6.4,1.2,11.2,3.6,14.5c2.4,3.3,5.8,4.8,10.5,4.8c3.3,0,5.8-0.5,7.4-1.7
				c1.5-1.2,2.9-2.8,3.8-4.6v-16.7h-11.4v-7.4h21.8V303.1z"/>
			<path fill="#F1F2F2" d="M416,313.4c-0.3-1.2-0.7-2.4-0.9-3.6c-0.2-1.2-0.3-2.2-0.5-3.3h-0.2c-1.4,2.2-3.1,4.3-5.2,5.7
				c-2.1,1.4-4.5,2.2-7.1,2.2c-4.5,0-7.9-1.4-10.3-4.3c-2.4-2.9-3.6-6.7-3.6-11.7c0-5.3,1.7-9.5,5-12.4c3.3-2.9,8.1-4.3,14.3-4.3
				h7.1V276c0-3.4-0.7-6-2.1-7.9c-1.4-1.9-3.3-2.8-5.8-2.8c-2.2,0-4.1,0.9-5.5,2.4c-1.4,1.5-1.9,3.8-1.9,6.4h-10.2
				c0-4.5,1.7-8.3,5-11.5c3.3-3.3,7.7-4.8,13.2-4.8c5.2,0,9.5,1.5,12.6,4.6c3.1,3.1,4.6,7.7,4.6,13.8v25.3c0,2.1,0.2,4.1,0.3,6
				c0.2,1.9,0.7,4,1.2,5.8H416z M404.5,306.5c2.2,0,4.1-0.7,6-2.1c1.7-1.4,3.1-3.1,4-5.2v-11.4h-7.2c-2.9,0-5.2,1-6.7,2.9
				c-1.5,2.1-2.2,4.5-2.2,7.4c0,2.4,0.5,4.5,1.5,6C400.9,305.8,402.4,306.5,404.5,306.5z"/>
			<path fill="#F1F2F2" d="M440.9,258.8l0.5,6.7h0.2c1.4-2.4,3.1-4.5,5.2-5.7c2.1-1.4,4.6-2.1,7.6-2.1c2.8,0,5.2,0.7,7.2,2.2
				c2.1,1.5,3.6,4,4.6,7.1c1.4-2.9,3.1-5.3,5.3-6.9c2.2-1.7,4.8-2.4,7.9-2.4c4.5,0,7.9,1.9,10.5,5.5c2.6,3.6,3.8,9.3,3.8,17.2v32.9
				h-10.2v-33c0-5.5-0.7-9.3-1.9-11.5s-3.1-3.1-5.7-3.1c-2.1,0-4,0.9-5.3,2.4c-1.4,1.5-2.4,3.6-3.1,6.4c0,0.7,0,1.2,0.2,1.9
				c0,0.7,0,1.4,0,1.9v34.9h-10.2v-33c0-5.2-0.7-8.9-1.9-11.2c-1.2-2.2-3.1-3.3-5.7-3.3c-1.9,0-3.6,0.5-5,1.7
				c-1.4,1.2-2.4,2.8-3.3,4.6v41.3h-10v-54.5H440.9z"/>
			<path fill="#F1F2F2" d="M519.2,314.4c-6.2,0-11-2.2-14.6-6.7s-5.3-10.2-5.3-17.4v-7.9c0-7.2,1.7-13.2,5.3-17.7
				c3.6-4.6,8.3-6.9,13.9-6.9c6,0,10.7,2.1,13.8,6.2c3.1,4.1,4.6,9.8,4.6,17v7.1h-27.5v2.2c0,4.8,0.9,8.8,2.6,11.7
				c1.7,2.9,4.3,4.5,7.9,4.5c3.3,0,5.8-0.5,7.7-1.4c1.9-0.9,3.6-2.2,5-4l2.9,6.5c-1.7,2.1-3.8,3.6-6.5,4.6
				C526.3,313.4,523,314.4,519.2,314.4z M518.5,265.7c-2.8,0-5,1.4-6.5,4.3c-1.5,2.9-2.4,6.5-2.6,11H527V279c0-4-0.7-7.1-2.1-9.5
				C523.5,267.1,521.5,265.7,518.5,265.7z"/>
			<path fill="#BCBCBC" d="M547.3,313.4v-73.5h17.5c8.8,0,15.3,2.4,20,7.4c4.5,5,6.9,12.6,6.9,22.7v13.1c0,10.3-2.2,17.9-6.9,22.7
				c-4.6,5-11.4,7.4-20.3,7.4h-17.2V313.4z M557.4,247.8v57.8h6.5c6.4,0,10.8-1.7,13.6-5.3c2.6-3.6,4-9.3,4-17V270
				c0-7.9-1.4-13.4-4-17c-2.6-3.4-6.9-5.2-13.1-5.2H557.4z"/>
			<path fill="#BCBCBC" d="M617.1,314.4c-6.2,0-11-2.2-14.6-6.7s-5.3-10.2-5.3-17.4v-7.9c0-7.2,1.7-13.2,5.3-17.7
				c3.6-4.6,8.3-6.9,13.9-6.9c6,0,10.7,2.1,13.8,6.2c3.1,4.1,4.6,9.8,4.6,17v7.1h-27.5v2.2c0,4.8,0.9,8.8,2.6,11.7
				c1.7,2.9,4.3,4.5,7.9,4.5c3.3,0,5.8-0.5,7.7-1.4c1.9-0.9,3.6-2.2,5-4l2.9,6.5c-1.7,2.1-3.8,3.6-6.5,4.6
				C624.2,313.4,620.9,314.4,617.1,314.4z M616.4,265.7c-2.8,0-5,1.4-6.5,4.3c-1.5,2.9-2.4,6.5-2.6,11h17.5V279c0-4-0.7-7.1-2.1-9.5
				C621.4,267.1,619.4,265.7,616.4,265.7z"/>
			<path fill="#BCBCBC" d="M654.5,297l0.9,4.3h0.2l0.9-4.3l8.6-38.2h10.5L660,313.4H651l-15.5-54.5H646L654.5,297z"/>
			<path fill="#F36C35" d="M730,313.4h-10.2l-26-54.2h-0.2v54h-10.2v-73.3h10.2l26,54h0.2v-54H730V313.4z"/>
			<path fill="#F36C35" d="M757,314.4c-6.2,0-11-2.2-14.6-6.7s-5.3-10.2-5.3-17.4v-7.9c0-7.2,1.7-13.2,5.3-17.7
				c3.6-4.6,8.3-6.9,13.9-6.9c6,0,10.7,2.1,13.8,6.2c3.1,4.1,4.6,9.8,4.6,17v7.1h-27.5v2.2c0,4.8,0.9,8.8,2.6,11.7
				c1.7,2.9,4.3,4.5,7.9,4.5c3.3,0,5.8-0.5,7.7-1.4c1.9-0.9,3.6-2.2,5-4l2.9,6.5c-1.7,2.1-3.8,3.6-6.5,4.6
				C764,313.4,760.6,314.4,757,314.4z M756.1,265.7c-2.8,0-5,1.4-6.5,4.3c-1.5,2.9-2.4,6.5-2.6,11h17.5V279c0-4-0.7-7.1-2.1-9.5
				C761.1,267.1,759.1,265.7,756.1,265.7z"/>
			<path fill="#F36C35" d="M792.3,295.1l0.3,2.6h0.2l0.3-2.6l8.6-36.3h7.2l8.6,36.3l0.5,3.4h0.2l0.5-3.6l6.4-36h9.6l-11.9,54.5h-8.4
				l-8.4-35.3l-0.7-4h-0.2l-0.7,4l-8.3,35.3h-8.4l-11.9-54.7h9.6L792.3,295.1z"/>
			<path fill="#F36C35" d="M862.6,299.6c0-2.1-0.7-4-1.9-5.3c-1.2-1.4-3.8-3.1-7.4-4.8c-5.5-2.2-9.5-4.5-12-6.9
				c-2.6-2.4-3.8-5.7-3.8-9.6c0-4.3,1.5-7.9,4.6-10.8c3.1-2.9,7.2-4.3,12.6-4.3c5.5,0,9.8,1.5,12.9,4.8c3.1,3.1,4.8,7.2,4.8,12.2
				h-10.2c0-2.6-0.7-4.8-1.9-6.7c-1.4-1.9-3.1-2.8-5.7-2.8c-2.4,0-4.3,0.7-5.5,2.1c-1.2,1.4-1.9,3.1-1.9,5.2s0.5,3.8,1.7,5
				c1,1.2,3.6,2.8,7.4,4.8c5.5,2.1,9.6,4.5,12.2,6.9c2.6,2.6,4,5.8,4,10c0,4.6-1.5,8.3-4.8,11s-7.6,4.1-12.9,4.1
				c-5.8,0-10.5-1.7-13.8-5c-3.3-3.3-4.8-7.4-4.8-12.2h9.8c0.2,3.6,1,6.2,2.6,7.7c1.7,1.5,3.8,2.2,6.4,2.2c2.4,0,4.5-0.7,5.7-2.1
				C861.9,303.6,862.6,301.8,862.6,299.6z"/>
		</g>
	</g>
</g>
</svg>
