<?xml version="1.0" encoding="utf-8"?>
<!-- Generator: Adobe Illustrator 17.1.0, SVG Export Plug-In . SVG Version: 6.00 Build 0)  -->
<!DOCTYPE svg PUBLIC "-//W3C//DTD SVG 1.1//EN" "http://www.w3.org/Graphics/SVG/1.1/DTD/svg11.dtd">
<svg version="1.1" id="Layer_1" xmlns="http://www.w3.org/2000/svg" xmlns:xlink="http://www.w3.org/1999/xlink" x="0px" y="0px"
	 viewBox="188.7 138.7 583.6 265.8" enable-background="new 188.7 138.7 583.6 265.8" xml:space="preserve">
<g id="Layer_1_1_">
</g>
<g id="Layer_2">
</g>
<g id="Layer_3">
	<g>
		<rect x="217.8" y="274.3" fill="#DC5B26" width="24.9" height="8.4"/>
		<rect x="212.9" y="287.9" fill="#DC5B26" width="28.2" height="8.4"/>
		<g>
			<rect x="307.8" y="138.7" width="26.8" height="8.4"/>
			<rect x="305.4" y="152.3" width="32" height="8.4"/>
			<rect x="304.8" y="165.8" width="32.8" height="8.4"/>
			<rect x="304" y="179.4" width="34.4" height="8.4"/>
			<rect x="304" y="192.9" width="34.4" height="8.4"/>
			<rect x="303.5" y="206.5" width="35.3" height="8.4"/>
			<rect x="302.9" y="220.1" width="36.9" height="8.4"/>
			<rect x="302.6" y="233.6" width="37.4" height="8.4"/>
			<rect x="303.5" y="247.2" width="36.6" height="8.4"/>
			<rect x="302.9" y="260.7" width="36.9" height="8.4"/>
			<rect x="282" y="274.3" width="78.6" height="8.4"/>
			<rect x="272.5" y="287.9" width="97.1" height="8.4"/>
			<rect x="292.1" y="301.4" width="58.3" height="8.4"/>
		</g>
		<g>
			<rect x="345.5" y="260.7" fill="#898989" width="17.9" height="8.4"/>
			<rect x="275" y="260.7" fill="#898989" width="23.3" height="8.4"/>
			<rect x="254.4" y="274.3" fill="#898989" width="18.2" height="8.4"/>
			<rect x="367.5" y="274.3" fill="#898989" width="22" height="8.4"/>
			<rect x="250" y="287.9" fill="#898989" width="14.9" height="8.4"/>
			<rect x="376.9" y="287.9" fill="#898989" width="17.6" height="8.4"/>
			<rect x="254.1" y="301.4" fill="#898989" width="29.3" height="8.4"/>
			<rect x="359.9" y="301.4" fill="#898989" width="22.5" height="8.4"/>
			<rect x="287.7" y="315" fill="#898989" width="58.8" height="8.4"/>
		</g>
		<g>
			<rect x="280.4" y="247.2" fill="#4A494A" width="17.6" height="8.4"/>
			<rect x="369.9" y="260.7" fill="#4A494A" width="8.9" height="8.4"/>
			<rect x="246.2" y="260.7" fill="#4A494A" width="23.3" height="8.4"/>
			<rect x="394" y="274.3" fill="#4A494A" width="22" height="8.4"/>
			<rect x="401.1" y="287.9" fill="#4A494A" width="39.9" height="8.4"/>
			<rect x="201.8" y="301.4" fill="#4A494A" width="45.3" height="8.4"/>
			<rect x="389.7" y="301.4" fill="#4A494A" width="34.4" height="8.4"/>
			<rect x="430.1" y="301.4" fill="#212121" width="14.9" height="8.4"/>
			<rect x="234.8" y="315" fill="#4A494A" width="42" height="8.4"/>
			<rect x="353.9" y="315" fill="#4A494A" width="42.8" height="8.4"/>
			<rect x="273.1" y="328.3" fill="#4A494A" width="92.7" height="8.4"/>
			<rect x="300.2" y="341.8" fill="#4A494A" width="42.3" height="8.4"/>
		</g>
		<g>
			<rect x="188.7" y="315" fill="#212121" width="37.7" height="8.4"/>
			<rect x="409.8" y="315" fill="#212121" width="32.3" height="8.4"/>
			<rect x="192.5" y="328.3" fill="#212121" width="72.4" height="8.4"/>
			<rect x="374.5" y="328.3" fill="#212121" width="64.8" height="8.4"/>
			<rect x="348.7" y="341.8" fill="#212121" width="88.9" height="8.4"/>
			<rect x="197.2" y="341.8" fill="#212121" width="93.8" height="8.4"/>
			<rect x="216.4" y="355.4" fill="#212121" width="209.6" height="8.4"/>
			<rect x="241.6" y="368.9" fill="#212121" width="159.2" height="8.4"/>
			<rect x="273.9" y="382.5" fill="#212121" width="94.6" height="8.4"/>
			<rect x="305.1" y="396.1" fill="#212121" width="32.3" height="8.4"/>
		</g>
		<g opacity="0.2">
			<rect x="188.7" y="274.3" fill="#D8D8D8" width="22.8" height="8.4"/>
			<rect x="189" y="138.7" fill="#D8D8D8" width="112.3" height="8.4"/>
			<rect x="189" y="152.3" fill="#D8D8D8" width="110.4" height="8.4"/>
			<rect x="189" y="165.8" fill="#D8D8D8" width="109.6" height="8.4"/>
			<rect x="189" y="179.4" fill="#D8D8D8" width="109" height="8.4"/>
			<rect x="189" y="192.9" fill="#D8D8D8" width="109" height="8.4"/>
			<rect x="189" y="206.5" fill="#D8D8D8" width="107.7" height="8.4"/>
			<rect x="189" y="220.1" fill="#D8D8D8" width="106.8" height="8.4"/>
			<rect x="189" y="233.6" fill="#D8D8D8" width="106.8" height="8.4"/>
			<rect x="188.7" y="247.2" fill="#D8D8D8" width="86.2" height="8.4"/>
			<rect x="188.7" y="260.7" fill="#D8D8D8" width="53.2" height="8.4"/>
			<rect x="188.7" y="287.9" fill="#D8D8D8" width="16.8" height="8.4"/>
			<rect x="188.7" y="301.4" fill="#D8D8D8" width="7.3" height="8.4"/>
			<rect x="188.7" y="355.4" fill="#D8D8D8" width="19.5" height="8.4"/>
			<rect x="188.7" y="368.9" fill="#D8D8D8" width="45" height="8.4"/>
			<rect x="188.7" y="382.5" fill="#D8D8D8" width="79.2" height="8.4"/>
			<rect x="188.7" y="396.1" fill="#D8D8D8" width="110.4" height="8.4"/>
		</g>
		<g>
			<path fill="#F1F2F2" d="M602,316.3c-2.7,4.6-6.8,8.9-12.2,12.5c-5.4,3.5-12.7,5.4-21.7,5.4c-11.7,0-21.2-3.5-27.9-10.8
				s-10.3-17.9-10.3-31.7v-34.2c0-13.8,3.3-24.1,9.8-31.5c6.5-7.3,15.5-10.8,26.6-10.8c11.4,0,20.1,3,25.8,8.7
				c5.7,6,8.9,14.4,9.5,25.8h-15.7c-0.3-7.3-1.9-13-4.9-16.5c-3-3.8-7.9-5.4-14.4-5.4c-6.8,0-11.9,2.4-15.5,7.3
				c-3.5,4.9-5.4,12.5-5.4,22.2v34.4c0,10,1.9,17.6,5.7,22.8c3.8,5.2,9.2,7.6,16.5,7.6c5.2,0,9.2-0.8,11.7-2.7
				c2.4-1.9,4.6-4.3,6-7.3v-26.3h-17.9V274H602V316.3z"/>
			<path fill="#BCBCBC" d="M616.1,332.6V216.8h27.7c13.8,0,24.1,3.8,31.5,11.7c7.1,7.9,10.8,19.8,10.8,35.8v20.6
				c0,16.3-3.5,28.2-10.8,35.8c-7.3,7.9-17.9,11.7-32,11.7h-27.1V332.6z M632.1,229.3v91.1h10.3c10,0,17.1-2.7,21.4-8.4
				c4.1-5.7,6.2-14.6,6.2-26.8v-20.9c0-12.5-2.2-21.2-6.2-26.8c-4.1-5.4-10.8-8.1-20.6-8.1H632.1z"/>
			<path fill="#F36C35" d="M772.3,332.6h-16l-40.9-85.4h-0.3v85.2h-16V216.8h16l40.9,85.2h0.3v-85.2h16V332.6z"/>
		</g>
	</g>
</g>
</svg>
